<?xml version="1.0" encoding="utf-8"?>
<!-- Generator: Adobe Illustrator 18.0.0, SVG Export Plug-In . SVG Version: 6.00 Build 0)  -->
<!DOCTYPE svg PUBLIC "-//W3C//DTD SVG 1.1//EN" "http://www.w3.org/Graphics/SVG/1.1/DTD/svg11.dtd">
<svg version="1.1" id="Layer_1" xmlns="http://www.w3.org/2000/svg" xmlns:xlink="http://www.w3.org/1999/xlink" x="0px" y="0px"
	 viewBox="0 0 112.3 112.3" enable-background="new 0 0 112.3 112.3" xml:space="preserve">
<g>
	<path d="M56.1,0c31,0,56.2,25.2,56.2,56.2c0,31-25.2,56.1-56.1,56.1C25.1,112.3,0,87.2,0,56.1C0,25.2,25.2,0,56.1,0z M60.4,94.8
		c2,0.4,3.8,0.8,5.7,1.1c3.6,0.5,7.1,0.9,10.7,0.4c5.5-0.9,9.6-3.7,11.9-8.9c1.2-2.7,1.6-5.6,1.5-8.6c-0.1-3.8-0.8-7.4-3-10.6
		c-0.2-0.3-0.3-0.8-0.3-1.2c0-7.4,0-14.9,0-22.3c0-0.4,0.2-0.9,0.4-1.3c0.5-1.1,1.2-2.2,1.6-3.3c1.2-3.2,1.5-6.4,1.1-9.8
		c-0.7-6.9-5.2-13.2-13.5-14.2c-6.9-0.8-13.5,2.4-16.4,9.2c-0.2,0.4-0.3,0.8-0.5,1.2c-2.6,0-5.2,0-7.8,0c0-2.9,0-5.8,0-8.8
		c-2-0.4-3.8-0.8-5.7-1.1c-3.5-0.5-7.1-0.9-10.6-0.4c-6.3,1-10.6,4.4-12.6,10.5c-1.2,3.8-1.1,7.6-0.4,11.5c0.6,3,1.8,5.7,4,7.9
		c0.4,0.4,0.4,0.7,0.4,1.2c0,6.2,0,12.4,0,18.6c0,0.6-0.2,1-0.5,1.4c-1.6,1.6-2.6,3.5-3.4,5.6c-1.2,3.4-1.4,6.9-0.8,10.4
		c0.6,3.9,2.3,7.3,5.4,9.9c3.1,2.5,6.7,3.6,10.6,3.4c6.3-0.3,10.9-3.2,13.7-8.9c0.2-0.4,0.3-0.7,0.5-1.1c2.7,0,5.3,0,8.1,0
		C60.4,89.2,60.4,91.9,60.4,94.8z"/>
	<path d="M60.4,77.5c-2.5,0-4.7,0-7,0c-0.5-4.4-2.1-8.3-5.5-11.3c-3.4-2.9-7.6-3.8-12-3.5c0-4.4,0-8.8,0-13.2c2.3,0,4.5-0.5,6.8-1.4
		c0,4,0,7.9,0,11.9c3.1,0,6,0,9.1,0c0-8.2,0-16.4,0-24.6c2.4,0,4.7,0,6.9,0c1.4,10,9,15.7,19.2,14.1c0,4.4,0,8.9,0,13.4
		c-2.8-0.1-5.6,0.2-8.4,1.4c0-4.1,0-7.9,0-11.8c-3.1,0-6,0-9.1,0c0,2.1,0,4.1,0,6.2c0,2.1,0,4.2,0,6.4c0,2.1,0,4.2,0,6.2
		C60.4,73.2,60.4,75.3,60.4,77.5z"/>
	<path d="M80.9,32.8c0,1.9-0.3,3.8-1.1,5.6c-1.4,2.8-3.9,3.9-6.9,3.2c-1.4-0.3-2.5-1.2-3.3-2.4c-0.9-1.4-1.4-3-1.5-4.6
		c-0.3-2.4-0.1-4.8,0.8-7.1c1.3-3,4-4.4,7.2-3.5c1.7,0.4,2.8,1.5,3.6,3C80.5,28.5,80.9,30.4,80.9,32.8z"/>
	<path d="M31.2,79.6c0-1.9,0.2-3.8,1.1-5.6c1.4-2.8,4-4,7.1-3.2c1.3,0.4,2.3,1.2,3.1,2.3c1,1.4,1.4,3,1.6,4.7
		c0.3,2.4,0.1,4.7-0.8,6.9c-1.3,3.1-4.1,4.4-7.3,3.6c-1.6-0.4-2.7-1.5-3.5-2.9C31.6,83.9,31.2,82,31.2,79.6z"/>
	<path d="M42.6,40.5c-2.3,1.1-4.7,1.7-7.3,0.8c-1.6-0.5-2.6-1.6-3.2-3.2c-0.9-2.2-1.1-4.6-0.8-7c0.2-1.3,0.5-2.6,1-3.8
		c0.9-2.2,2.7-3.5,5.1-3.8c1.7-0.2,3.4-0.1,5.2,0.2C42.6,29.4,42.6,34.9,42.6,40.5z"/>
	<path d="M69.5,88.6c0-0.6,0-1,0-1.4c0-4.7,0-9.4,0-14.1c0-1.3,0-1.3,1.3-1.8c1.8-0.6,3.5-0.9,5.4-0.5c1.6,0.4,2.8,1.2,3.5,2.7
		c0.5,1.1,0.9,2.3,1.1,3.5c0.4,2.4,0.3,4.8-0.6,7.1c-1.1,3.2-3.4,4.7-6.7,4.7C72.2,88.8,70.9,88.6,69.5,88.6z"/>
</g>
</svg>
